{
  "accessors": [
    {
      "bufferView": 2,
      "componentType": 5126,
      "count": 512,
      "max": [
        43.49456024169922,
        32.39286422729492,
        31.172931671142578
      ],
      "min": [
        -14.629615783691406,
        -29.97511863708496,
        -64.35716247558594
      ],
      "type": "VEC3"
    },
    {
      "bufferView": 2,
      "byteOffset": 6144,
      "componentType": 5126,
      "count": 512,
      "max": [
        0.9862546920776367,
        0.9997590184211731,
        0.9812575578689575
      ],
      "min": [
        -0.9986083507537842,
        -0.9973548650741577,
        -0.7441537380218506
      ],
      "type": "VEC3"
    },
    {
      "bufferView": 1,
      "componentType": 5126,
      "count": 512,
      "max": [
        0.9998874068260193,
        0.6493560671806335
      ],
      "min": [
        0.000112673566036392,
        0.00011261430336162448
      ],
      "type": "VEC2"
    },
    {
      "bufferView": 0,
      "componentType": 5125,
      "count": 2358,
      "type": "SCALAR"
    },
    {
      "bufferView": 2,
      "byteOffset": 12288,
      "componentType": 5126,
      "count": 512,
      "max": [
        43.49456024169922,
        32.39286422729492,
        31.172931671142578
      ],
      "min": [
        -14.629615783691406,
        -29.97511863708496,
        -64.35716247558594
      ],
      "type": "VEC3"
    },
    {
      "bufferView": 2,
      "byteOffset": 18432,
      "componentType": 5126,
      "count": 512,
      "max": [
        0.9862546920776367,
        0.9997590184211731,
        0.9812575578689575
      ],
      "min": [
        -0.9986083507537842,
        -0.9973548650741577,
        -0.7441537380218506
      ],
      "type": "VEC3"
    },
    {
      "bufferView": 1,
      "byteOffset": 4096,
      "componentType": 5126,
      "count": 512,
      "max": [
        0.9998874068260193,
        0.6493560671806335
      ],
      "min": [
        0.000112673566036392,
        0.00011261430336162448
      ],
      "type": "VEC2"
    },
    {
      "bufferView": 0,
      "byteOffset": 9432,
      "componentType": 5125,
      "count": 2358,
      "type": "SCALAR"
    },
    {
      "bufferView": 2,
      "byteOffset": 24576,
      "componentType": 5126,
      "count": 512,
      "max": [
        43.49456024169922,
        32.39286422729492,
        31.172931671142578
      ],
      "min": [
        -14.629615783691406,
        -29.97511863708496,
        -64.35716247558594
      ],
      "type": "VEC3"
    },
    {
      "bufferView": 2,
      "byteOffset": 30720,
      "componentType": 5126,
      "count": 512,
      "max": [
        0.9862546920776367,
        0.9997590184211731,
        0.9812575578689575
      ],
      "min": [
        -0.9986083507537842,
        -0.9973548650741577,
        -0.7441537380218506
      ],
      "type": "VEC3"
    },
    {
      "bufferView": 1,
      "byteOffset": 8192,
      "componentType": 5126,
      "count": 512,
      "max": [
        0.9998874068260193,
        0.6493560671806335
      ],
      "min": [
        0.000112673566036392,
        0.00011261430336162448
      ],
      "type": "VEC2"
    },
    {
      "bufferView": 0,
      "byteOffset": 18864,
      "componentType": 5125,
      "count": 2358,
      "type": "SCALAR"
    },
    {
      "bufferView": 2,
      "byteOffset": 36864,
      "componentType": 5126,
      "count": 512,
      "max": [
        43.49456024169922,
        32.39286422729492,
        31.172931671142578
      ],
      "min": [
        -14.629615783691406,
        -29.97511863708496,
        -64.35716247558594
      ],
      "type": "VEC3"
    },
    {
      "bufferView": 2,
      "byteOffset": 43008,
      "componentType": 5126,
      "count": 512,
      "max": [
        0.9862546920776367,
        0.9997590184211731,
        0.9812575578689575
      ],
      "min": [
        -0.9986083507537842,
        -0.9973548650741577,
        -0.7441537380218506
      ],
      "type": "VEC3"
    },
    {
      "bufferView": 1,
      "byteOffset": 12288,
      "componentType": 5126,
      "count": 512,
      "max": [
        0.9998874068260193,
        0.6493560671806335
      ],
      "min": [
        0.000112673566036392,
        0.00011261430336162448
      ],
      "type": "VEC2"
    },
    {
      "bufferView": 0,
      "byteOffset": 28296,
      "componentType": 5125,
      "count": 2358,
      "type": "SCALAR"
    }
  ],
  "asset": {
    "extras": {
      "author": "ronildo.facanha (https://sketchfab.com/ronildo.facanha)",
      "license": "CC-BY-4.0 (http://creativecommons.org/licenses/by/4.0/)",
      "source": "https://sketchfab.com/3d-models/low-poly-hand-3d-model-19c9ac5c369a468a95f081a3cc2ad4ac",
      "title": "Low Poly Hand - 3D Model"
    },
    "generator": "Sketchfab-16.53.0",
    "version": "2.0"
  },
  "bufferViews": [
    {
      "buffer": 0,
      "byteLength": 37728,
      "name": "floatBufferViews",
      "target": 34963
    },
    {
      "buffer": 0,
      "byteLength": 16384,
      "byteOffset": 37728,
      "byteStride": 8,
      "name": "floatBufferViews",
      "target": 34962
    },
    {
      "buffer": 0,
      "byteLength": 49152,
      "byteOffset": 54112,
      "byteStride": 12,
      "name": "floatBufferViews",
      "target": 34962
    }
  ],
  "buffers": [
    {
      "byteLength": 103264,
      "uri": "scene.bin"
    }
  ],
  "materials": [
    {
      "doubleSided": true,
      "name": "Material",
      "pbrMetallicRoughness": {
        "baseColorFactor": [
          0.6128662499164927,
          0.3690207920783748,
          0.3690207920783748,
          1.0
        ],
        "metallicFactor": 0.0,
        "roughnessFactor": 0.5
      }
    }
  ],
  "meshes": [
    {
      "name": "Object_0",
      "primitives": [
        {
          "attributes": {
            "NORMAL": 1,
            "POSITION": 0,
            "TEXCOORD_0": 2
          },
          "indices": 3,
          "material": 0,
          "mode": 4
        }
      ]
    },
    {
      "name": "Object_1",
      "primitives": [
        {
          "attributes": {
            "NORMAL": 5,
            "POSITION": 4,
            "TEXCOORD_0": 6
          },
          "indices": 7,
          "material": 0,
          "mode": 4
        }
      ]
    },
    {
      "name": "Object_2",
      "primitives": [
        {
          "attributes": {
            "NORMAL": 9,
            "POSITION": 8,
            "TEXCOORD_0": 10
          },
          "indices": 11,
          "material": 0,
          "mode": 4
        }
      ]
    },
    {
      "name": "Object_3",
      "primitives": [
        {
          "attributes": {
            "NORMAL": 13,
            "POSITION": 12,
            "TEXCOORD_0": 14
          },
          "indices": 15,
          "material": 0,
          "mode": 4
        }
      ]
    }
  ],
  "nodes": [
    {
      "children": [
        1
      ],
      "matrix": [
        1.0,
        0.0,
        0.0,
        0.0,
        0.0,
        2.220446049250313e-16,
        -1.0,
        0.0,
        0.0,
        1.0,
        2.220446049250313e-16,
        0.0,
        0.0,
        0.0,
        0.0,
        1.0
      ],
      "name": "Sketchfab_model"
    },
    {
      "children": [
        2
      ],
      "name": "root"
    },
    {
      "children": [
        3,
        5,
        7,
        9
      ],
      "matrix": [
        1.0,
        0.0,
        0.0,
        0.0,
        0.0,
        2.220446049250313e-16,
        1.0,
        0.0,
        0.0,
        -1.0,
        2.220446049250313e-16,
        0.0,
        0.0,
        0.0,
        0.0,
        1.0
      ],
      "name": "GLTF_SceneRootNode"
    },
    {
      "children": [
        4
      ],
      "matrix": [
        -0.003503188204676966,
        -0.005900607713206543,
        -0.007273960169475173,
        0.0,
        -0.009358877494085576,
        0.001895977654055371,
        0.0029692888568936615,
        0.0,
        -0.00037293428772685477,
        0.007847808157684655,
        -0.006186503266536558,
        0.0,
        -0.06500793993473053,
        -1.5050303936004639,
        -0.07926392555236816,
        1.0
      ],
      "name": "Plane005_0"
    },
    {
      "mesh": 0,
      "name": "Object_4"
    },
    {
      "children": [
        6
      ],
      "matrix": [
        0.003503187401224939,
        -0.005900609978788002,
        0.007273958718591823,
        0.0,
        0.009358877591160622,
        0.001895973719980996,
        -0.0029692910629415697,
        0.0,
        0.00037293939886007764,
        0.00784780740468448,
        0.006186503913634018,
        0.0,
        -0.8908236026763916,
        -1.5050303936004639,
        -0.07926392555236816,
        1.0
      ],
      "name": "Plane005.001_3"
    },
    {
      "mesh": 1,
      "name": "Object_6"
    },
    {
      "children": [
        8
      ],
      "matrix": [
        -0.007273960190259351,
        -0.0059006080911796184,
        0.0035031875248806577,
        0.0,
        0.0029692933677186676,
        0.001895970851702208,
        0.00935887744099522,
        0.0,
        -0.006186501077070608,
        0.007847809516894056,
        0.0003729420056831806,
        0.0,
        1.0104055404663086,
        -1.5050303936004639,
        -0.07926392555236816,
        1.0
      ],
      "name": "Plane005.002_4"
    },
    {
      "mesh": 2,
      "name": "Object_8"
    },
    {
      "children": [
        10
      ],
      "matrix": [
        0.007273960866961024,
        -0.005900606244713389,
        -0.003503189229890482,
        0.0,
        -0.00296929298657839,
        0.001895973974785065,
        -0.009358876929228517,
        0.0,
        0.006186500464352015,
        0.00784781015070056,
        -0.0003729388324983345,
        0.0,
        0.5795193910598755,
        -1.5050303936004639,
        -0.07926392555236816,
        1.0
      ],
      "name": "Plane005.003_5"
    },
    {
      "mesh": 3,
      "name": "Object_10"
    }
  ],
  "scene": 0,
  "scenes": [
    {
      "name": "Sketchfab_Scene",
      "nodes": [
        0
      ]
    }
  ]
}
